<?xml version="1.0" encoding="UTF-8"?>
<svg id="OBJECTS" xmlns="http://www.w3.org/2000/svg" xmlns:xlink="http://www.w3.org/1999/xlink" viewBox="0 0 500 500">
  <defs>
    <style>
      .cls-1 {
        fill: #fff;
      }

      .cls-1, .cls-2, .cls-3, .cls-4, .cls-5, .cls-6, .cls-7, .cls-8, .cls-9, .cls-10, .cls-11, .cls-12, .cls-13, .cls-14, .cls-15 {
        stroke-width: 0px;
      }

      .cls-1, .cls-3, .cls-4, .cls-5, .cls-7, .cls-10, .cls-11, .cls-12 {
        fill-rule: evenodd;
      }

      .cls-2 {
        fill: #cb98d8;
      }

      .cls-3 {
        fill: #dbb6e3;
      }

      .cls-4, .cls-14 {
        fill: #dab6e4;
      }

      .cls-5, .cls-15 {
        fill: #5b4dcd;
      }

      .cls-6 {
        fill: #f3eaf5;
      }

      .cls-7, .cls-13 {
        fill: #897fdb;
      }

      .cls-8 {
        fill: none;
      }

      .cls-9, .cls-12 {
        fill: #2c217d;
      }

      .cls-10 {
        fill: #2d2280;
      }

      .cls-11 {
        fill: #4133b3;
      }

      .cls-16 {
        clip-path: url(#clippath);
      }
    </style>
    <clipPath id="clippath">
      <path class="cls-8" d="M212.71,233.25c4.21,29.46,7.67,48.93,28.81,48.3,21.14-.63,48.05-24.94,47.75-50.57-.3-25.62-17.68-45.89-38.82-45.27-21.14.63-38.04,21.91-37.74,47.53"/>
    </clipPath>
  </defs>
  <circle class="cls-6" cx="254.62" cy="254.84" r="167.49" transform="translate(-105.62 254.69) rotate(-45)"/>
  <path class="cls-4" d="M187.73,384.14s-10.8,1.35-20.63-.35c-3.02-.52-1.39,2.2-1.03,2.44,1.91,1.23,8.73,2.9,8.34,3.31-.82.86-13.75,2.11-18.3,2.02-.46,0-5.4-.28-5.39.41.02,1.61,2.63,2,3.84,2.17,4.11.56,16.74.38,16.11.47-1.13.16-10.72,1.97-14.42,2.51-.24.04-5.47.78-5.36,1.45.22,1.36,4.3,1.26,5.24,1.18,3.71-.32,13.79-1.06,15.07-1.14.53-.04-3.5,1.21-4.63,1.55-3.5,1.03-7.21,1.51-10.66,2.65-.68.22-3.06.79-2.75,1.94.2.75,2.15.79,2.69.79,3.31-.03,25.08-4.61,30.59-7.81,2.12-1.23,6.36-1.38,6.36-1.38,0,0,.66-10.13-5.08-12.2"/>
  <g>
    <path class="cls-5" d="M178.06,231.33c0-10.04-8.15-18.2-18.2-18.2h-45.69c-10.04,0-18.2,8.15-18.2,18.2v19.21c0,10.04,8.15,18.2,18.2,18.2h15.32l10.84,16.03s2.76,4.11,5.52,3.69c3.18-.49,2.68-5.88,2.68-5.88l.7-13.83h10.63c10.04,0,18.2-8.15,18.2-18.2v-19.21Z"/>
    <path class="cls-1" d="M110.62,231.8h.11s.1.03.1.03l.1.03.1.03.1.04.09.05.09.05.09.06.08.06.08.07.07.08.07.08.06.09.06.09.05.09.04.1.04.1.03.1.02.1.02.1v.11s.13,2.28.13,2.28l.12,2.29.06,1.14.06,1.14.05,1.15.05,1.15.05,1.15.05,1.15.05,1.15.04,1.15.04,1.15.04,1.15.02.57.02.57.02.57.02.57v.21s-.02.1-.02.1l-.02.1-.03.1-.04.1-.04.1-.05.09-.06.09-.06.09-.07.08-.07.08-.08.07-.08.07-.09.06-.09.05-.09.05-.1.04-.1.03-.1.03-.1.02h-.11s-.11.02-.11.02h-.21s-.11-.02-.11-.02l-.1-.02-.1-.03-.1-.04-.1-.04-.09-.05-.09-.05-.09-.06-.08-.07-.08-.07-.07-.08-.07-.08-.06-.09-.05-.09-.05-.09-.04-.1-.04-.1-.03-.1-.02-.1v-.11s-.02-.11-.02-.11l-.02-.57-.02-.57-.02-.57-.02-.57-.04-1.14-.04-1.14-.05-1.14-.05-1.14-.05-1.14-.05-1.14-.05-1.14-.05-1.14-.06-1.14-.06-1.14-.12-2.28-.12-2.28v-.11s0-.11,0-.11v-.11s.03-.1.03-.1l.03-.1.03-.1.04-.1.05-.09.05-.09.06-.09.07-.08.07-.08.08-.07.08-.07.08-.06.09-.06.09-.05.1-.04.1-.04.1-.03.1-.02.11-.02h.11s.11-.01.11-.01h.11Z"/>
    <path class="cls-1" d="M122.13,230.86h.11s.11.03.11.03l.1.03.1.04.1.04.1.05.09.05.09.06.08.07.08.07.07.08.07.08.06.09.06.09.05.1.04.1.04.1.03.1.02.11v.11s.02.11.02.11v.11s-.02.29-.02.29v.29s-.02.29-.02.29v.29s-.02.29-.02.29v.29s-.01.29-.01.29v.29s0,.29,0,.29v.29s0,.29,0,.29v.29s0,.29,0,.29v.29s0,.29,0,.29v.29s.01.29.01.29v.29s.03.59.03.59l.02.59.02.59.02.59.03.59.06,1.19.06,1.2.03.6.03.6.02.6.02.6.02.6v.3s.02.3.02.3v.3s.01.3.01.3v.3s0,.3,0,.3v.3s0,.3,0,.3v.61s0,.31,0,.31v.31s0,.31,0,.31v.31s-.01.31-.01.31v.31s-.02.31-.02.31v.3s-.02.11-.02.11l-.02.11-.02.11-.03.1-.04.1-.05.1-.05.09-.06.09-.06.09-.07.08-.08.08-.08.07-.09.07-.09.06-.09.05-.1.05-.1.04-.1.03-.11.02-.11.02h-.11s-.11.01-.11.01h-.11s-.11-.02-.11-.02l-.11-.02-.1-.03-.1-.03-.1-.04-.1-.05-.09-.05-.09-.06-.08-.07-.08-.07-.07-.08-.07-.08-.06-.09-.06-.09-.05-.1-.04-.1-.04-.1-.03-.1-.02-.11v-.11s-.02-.11-.02-.11v-.11s.01-.29.01-.29v-.29s.02-.29.02-.29v-.29s.01-.29.01-.29v-.29s0-.29,0-.29v-.29s0-.29,0-.29v-.58s0-.29,0-.29v-.29s0-.29,0-.29v-.29s-.01-.29-.01-.29v-.29s-.02-.29-.02-.29l-.02-.59-.02-.59-.02-.59-.03-.59-.03-.6-.06-1.19-.06-1.2-.03-.6-.03-.6-.02-.6-.02-.6-.02-.6v-.3s-.02-.3-.02-.3v-.3s-.01-.3-.01-.3v-.3s0-.3,0-.3v-.3s0-.31,0-.31v-.3s0-.31,0-.31v-.31s0-.31,0-.31v-.31s.01-.31.01-.31v-.31s.02-.31.02-.31v-.31s.03-.3.03-.3v-.11s.03-.11.03-.11l.02-.11.03-.1.04-.1.05-.1.05-.1.06-.09.06-.09.07-.08.08-.08.08-.07.09-.07.09-.06.09-.05.1-.05.1-.04.1-.03.11-.02.11-.02h.11s.11-.01.11-.01h.11Z"/>
    <path class="cls-1" d="M121.86,240.64h.08s.08.02.08.02l.08.02.08.02.08.02.08.03.08.03.07.04.07.04.07.04.07.05.07.05.06.05.06.06.06.06.05.06.05.07.05.07.04.07.04.07.03.07.03.08.03.08.02.08.02.08v.08s.02.08.02.08v.08s0,.08,0,.08v.08s-.01.08-.01.08v.08s-.03.08-.03.08l-.02.08-.02.08-.03.08-.03.08-.04.07-.04.07-.05.07-.05.07-.05.06-.06.06-.06.06-.06.05-.06.05-.07.05-.07.04-.07.04-.07.04-.08.03-.08.03-.08.02-.08.02-.08.02h-.08s-.08.02-.08.02l-.35.02-.35.02-.35.02-.35.02-.7.03-.7.03-.7.03-.7.03-.35.02-.35.02-.35.02-.35.02-.34.02-.34.02-.34.03-.34.03-.34.03-.34.03-.17.02-.17.02-.17.02-.17.02-.17.02-.16.02-.16.02-.16.02-.16.03-.16.03-.16.03-.16.03-.16.03-.16.03-.16.03-.16.03-.16.03-.16.03-.16.04-.16.04-.08.02h-.08s-.08.02-.08.02h-.08s-.08,0-.08,0h-.08s-.08-.01-.08-.01h-.08s-.08-.03-.08-.03l-.08-.02-.08-.03-.08-.03-.08-.03-.07-.04-.07-.04-.07-.05-.07-.05-.06-.05-.06-.06-.06-.06-.05-.06-.05-.06-.05-.07-.04-.07-.04-.07-.04-.07-.03-.08-.03-.08-.02-.08-.02-.08-.02-.08v-.08s-.02-.08-.02-.08v-.08s0-.08,0-.08v-.08s.02-.08.02-.08l.02-.08.02-.08.02-.08.03-.08.03-.08.04-.07.04-.07.04-.07.05-.07.05-.06.05-.06.06-.06.06-.05.06-.05.07-.05.07-.05.07-.04.07-.04.08-.03.08-.03.08-.03.08-.02.17-.04.18-.04.18-.04.18-.04.18-.04.18-.04.18-.03.18-.03.18-.03.18-.03.18-.03.18-.03.18-.03.18-.03.18-.02.18-.02.18-.02.18-.02.18-.02.18-.02.36-.04.36-.03.36-.03.36-.03.36-.03.36-.02.36-.02.36-.02.36-.02.36-.02.71-.03.71-.03.7-.03.69-.03.34-.02.34-.02.34-.02.34-.02h.08s.08,0,.08,0Z"/>
    <path class="cls-1" d="M137.31,230.15h.08s.08.02.08.02l.08.02.08.02.08.03.08.03.08.04.08.04.07.04.07.05.07.05.06.06.06.06.06.06.05.07.05.07.05.07.04.07.04.08.03.08.03.08.03.08.02.08.02.08v.08s.02.08.02.08v.09s0,.08,0,.08v.08s-.02.08-.02.08l-.02.08-.02.08-.03.08-.03.08-.03.08-.04.08-.04.07-.05.07-.05.07-.05.07-.06.06-.06.06-.06.06-.07.05-.07.05-.07.05-.07.04-.08.04-.08.03-.08.03-.08.02-.08.02-.08.02-.19.03-.2.03-.2.03-.2.02-.2.02-.2.02-.2.02-.2.02-.2.02h-.2s-.2.03-.2.03h-.2s-.2.02-.2.02h-.2s-.2.02-.2.02h-.2s-.39.02-.39.02h-.39s-.38.02-.38.02h-.38s-.76.01-.76.01h-.37s-.37,0-.37,0h-.37s-.37.02-.37.02h-.37s-.18.02-.18.02h-.18s-.18.01-.18.01h-.18s-.18.02-.18.02h-.18s-.18.02-.18.02h-.18s-.18.03-.18.03l-.18.02-.17.02-.17.02-.17.02-.17.02-.17.02-.17.02-.17.03-.17.03-.17.03-.17.03-.17.03-.17.03-.16.04-.16.04-.16.04-.17.05-.08.02-.08.02h-.08s-.08.02-.08.02h-.08s-.09,0-.09,0h-.08s-.08-.02-.08-.02l-.08-.02-.08-.02-.08-.03-.08-.03-.08-.04-.08-.04-.07-.05-.07-.05-.07-.05-.06-.05-.06-.06-.06-.06-.05-.07-.05-.07-.05-.07-.04-.07-.04-.08-.04-.08-.03-.08-.03-.08-.02-.08-.02-.08v-.08s-.02-.08-.02-.08v-.08s0-.08,0-.08v-.09s.02-.08.02-.08l.02-.08.02-.08.02-.08.03-.08.03-.08.04-.08.04-.07.05-.07.05-.07.05-.07.06-.06.06-.06.06-.06.07-.05.07-.05.07-.05.08-.04.08-.04.08-.03.08-.03.08-.02.19-.05.2-.05.2-.05.2-.04.2-.04.2-.04.2-.04.2-.04.2-.03.2-.03.2-.03.2-.03.2-.02.2-.02.2-.02.2-.02.2-.02.2-.02h.2s.2-.03.2-.03h.2s.2-.02.2-.02h.2s.2-.02.2-.02h.19s.2-.02.2-.02h.39s.38-.02.38-.02h.38s.38-.01.38-.01h.38s.75-.01.75-.01h.37s.37-.01.37-.01h.37s.37-.02.37-.02h.18s.18-.01.18-.01h.18s.18-.02.18-.02h.18s.18-.02.18-.02h.18s.18-.03.18-.03h.18s.18-.03.18-.03l.17-.02.17-.02.17-.02.17-.02.17-.02.18-.03h.08s.08-.02.08-.02h.17Z"/>
    <path class="cls-1" d="M131.26,231.25h.11s.1.03.1.03l.1.03.1.03.1.04.1.05.09.05.09.06.08.07.08.07.07.08.07.08.06.08.06.09.05.09.05.1.04.1.03.1.02.1.02.1v.11s.04.58.04.58l.03.58.03.58.03.58.02.58.02.58.02.58.02.58.02.58.02.58.02.58.02.58.03,1.15.03,1.15.02,1.15.02,1.15.02,1.15.03,1.15.03,1.15.02.57.02.57.02.57.02.57.02.57.02.57v.11s0,.11,0,.11v.11s-.03.1-.03.1l-.03.1-.03.1-.04.1-.05.09-.05.09-.06.09-.07.08-.07.08-.08.07-.08.07-.09.06-.09.05-.09.05-.1.04-.1.04-.1.03-.1.02h-.1s-.11.02-.11.02h-.11s-.11,0-.11,0h-.11s-.1-.04-.1-.04l-.1-.03-.1-.04-.1-.04-.09-.05-.09-.05-.09-.06-.08-.07-.08-.07-.07-.08-.07-.08-.06-.09-.06-.09-.05-.09-.04-.1-.04-.1-.03-.1-.02-.1-.02-.1v-.11s-.03-.58-.03-.58l-.02-.58-.02-.58-.02-.58-.02-.58-.02-.58-.03-1.15-.03-1.15-.02-1.15-.02-1.15-.02-1.15-.03-1.15-.03-1.15-.02-.57-.02-.57-.02-.57-.02-.57-.02-.57-.02-.57-.02-.57-.03-.57-.03-.57-.03-.57-.03-.57-.03-.57v-.11s0-.11,0-.11v-.11s.03-.1.03-.1l.03-.1.03-.1.04-.1.05-.1.05-.09.06-.09.06-.08.07-.08.08-.07.08-.07.08-.06.09-.06.09-.05.1-.05.1-.04.1-.03.1-.02.1-.02h.11s.11-.01.11-.01h.11Z"/>
    <path class="cls-1" d="M152.57,228.63h.11s0,0,0,0l.11.02.11.03.11.03h0s.08.03.08.03l.08.04.08.04h0s.08.06.08.06l.08.06h0s.06.05.06.05l.06.05h0s.06.06.06.06l.06.06.02.02.05.05.04.06.05.06.06.1.05.08.04.07.04.07.04.07.06.12.05.13.05.12.05.12.04.12.07.2.05.15.03.09.05.16.04.15.04.15.04.15.04.15.03.15.03.15.03.15.03.15.03.15.02.15.02.15.02.15.02.15.02.15.02.15v.15s.03.15.03.15v.15s.02.14.02.14v.15s.02.14.02.14v.14s.02.14.02.14v.28s.02.28.02.28v.28s0,.27,0,.27v.54s0,.54,0,.54v1.08s0,1.08,0,1.08v1.08s0,1.07,0,1.07v1.07s0,.53,0,.53v.54s0,.53,0,.53v.53s0,.53,0,.53v.53s.02.53.02.53v.53s.03.53.03.53l.02.53.02.53.02.53.02.53.03.53v.26s.03.26.03.26l.02.26.02.26.02.26.02.26.02.26.02.26.02.26.02.26.02.26.02.27v.11s0,.12,0,.12v.11s-.03.11-.03.11l-.03.11-.04.11-.04.11-.05.1-.06.1-.07.09-.07.09-.08.08-.09.08-.09.07-.1.06-.1.06-.11.05-.11.04-.11.03-.11.02-.11.02h-.12s-.11,0-.11,0h-.12s-.11-.03-.11-.03l-.11-.03-.11-.04-.11-.04-.1-.05-.1-.06-.09-.07-.09-.07-.08-.08-.08-.09-.07-.09-.06-.1-.06-.1-.05-.11-.04-.11-.03-.11-.02-.11-.02-.11-.03-.27-.02-.27-.02-.27-.02-.27-.02-.27-.02-.27-.02-.27-.02-.27-.02-.27-.02-.27-.02-.27-.02-.27-.03-.54-.02-.55-.02-.54-.02-.55-.02-.54v-.54s-.03-.54-.03-.54v-.54s-.02-.54-.02-.54v-.54s0-.54,0-.54v-.54s0-.54,0-.54v-1.62s0-1.08,0-1.08v-1.08s0-1.07,0-1.07v-1.07s0-.54,0-.54v-.53s0-.25,0-.25v-.05s-.04.11-.04.11l-.15.4-.3.8-.15.41-.15.41-.16.41-.08.21-.08.2-.08.2-.08.2-.08.21-.09.2-.09.21-.09.2-.09.21-.09.2-.11.25-.07.15-.08.17-.09.18-.05.1-.05.09-.05.1-.05.1-.06.1-.06.1-.06.1-.06.1-.07.1-.07.1-.08.1-.08.1-.08.1-.09.1-.09.1-.06.06-.05.05-.05.05-.06.05-.06.05-.06.05-.07.05-.07.05-.07.05-.08.05-.08.04-.08.04-.09.04-.06.03-.11.04-.11.03-.11.02-.11.02h-.11s-.11,0-.11,0h-.11s-.11-.03-.11-.03l-.11-.03-.11-.03-.11-.04-.1-.05-.1-.06h0s-.09-.06-.09-.06l-.09-.07-.08-.08-.08-.08-.05-.06-.07-.1-.07-.11-.08-.13-.1-.16-.23-.38-.26-.44-.5-.83-.18-.29-.05-.08-.02-.03-.1-.15-.11-.18-.11-.17-.1-.17-.1-.17-.1-.17-.1-.17-.09-.17-.18-.33-.18-.33-.18-.32-.09-.15-.09-.15-.09-.15-.09-.15-.09-.14-.09-.14-.09-.14-.09-.14-.04-.06-.05-.06-.05-.06-.05-.06-.05-.06-.05-.06-.05-.06-.05-.06-.05-.06-.05-.06-.05-.06-.05-.06-.03-.03v.19s.02.23.02.23l.03.45v.22s.02.11.02.11v.1s.02.39.02.39l.02.39.02.4.02.4v.2s.02.2.02.2v.2s0,.21,0,.21v.21s0,.21,0,.21v.42s0,.3,0,.3v.29s-.01.29-.01.29v.29s-.02.29-.02.29v.29s-.03.57-.03.57l-.02.57-.02.57-.02.56v.28s-.02.28-.02.28v.22s0,.22,0,.22v.44s-.01.44-.01.44v.44s0,.44,0,.44v.44s0,.44,0,.44v.44s0,.45,0,.45v.45s.02.9.02.9v.9s.02.45.02.45v.45s0,.11,0,.11v.11s-.03.11-.03.11l-.03.11-.04.11-.05.11-.05.1-.06.1-.07.09-.08.09-.08.08-.09.08-.09.07-.1.06-.1.05-.11.05-.11.04-.11.03-.11.02h-.11s-.12.02-.12.02h-.11s-.11-.02-.11-.02l-.11-.02-.11-.03-.11-.04-.11-.05-.1-.05-.1-.06-.09-.07-.09-.08-.08-.08-.08-.09-.07-.09-.06-.1-.05-.1-.05-.11-.04-.11-.03-.11-.02-.11v-.11s-.02-.12-.02-.12v-.45s0-.45,0-.45v-.9s-.03-.9-.03-.9v-.45s-.01-.45-.01-.45v-.45s0-.45,0-.45v-.46s0-.46,0-.46v-.46s0-.46,0-.46v-.46s.01-.23.01-.23v-.23s.02-.29.02-.29v-.29s.03-.58.03-.58l.02-.57.02-.57.02-.57v-.28s.02-.28.02-.28v-.28s.02-.28.02-.28v-.28s0-.27,0-.27v-.18s0-.18,0-.18v-.19s0-.19,0-.19v-.19s0-.19,0-.19v-.19s-.01-.19-.01-.19l-.02-.39-.02-.39-.02-.4-.02-.39v-.08s0-.08,0-.08v-.19s-.04-.44-.04-.44l-.02-.25-.02-.26v-.14s-.01-.14-.01-.14v-.14s0-.14,0-.14v-.14s0-.15,0-.15v-.15s0-.15,0-.15v-.15s.02-.15.02-.15l.02-.15.02-.15v-.08s.02-.08.02-.08v-.08s.03-.08.03-.08l.02-.08.02-.08.02-.08.02-.08.02-.08.02-.08.03-.08.03-.08.03-.08.03-.08.04-.08.05-.11.04-.07.05-.08.05-.07v-.02s.07-.07.07-.07l.06-.07.02-.02.07-.07.07-.06.02-.02.07-.06.07-.05h.02s.07-.06.07-.06l.07-.04h.02s.07-.05.07-.05l.07-.03h.02s.07-.03.07-.03l.07-.02.08-.02.14-.03.13-.02h.12s.11,0,.11,0h.1s.1.01.1.01h.09s.09.03.09.03l.08.02.08.02.07.02.07.02.07.02.07.02.12.04.12.05.12.05.11.05.11.05.11.05.1.05.1.05.1.05.09.05.09.05.08.05.08.05.14.1.13.09.11.08.07.05.06.05.1.09.09.08.08.08.08.08.08.08.08.08.08.08.08.08.07.08.07.09.07.08.07.09.07.09.07.09.07.09.06.09.06.09.06.09.06.09.06.09.12.17.11.18.11.18.11.17.1.17.1.17.1.17.1.17.19.34.18.33.18.32.09.16.09.15.09.15.09.15.09.15.09.14.09.14.1.16.04.07.07.11.17.28.05-.12.08-.18.08-.19.08-.19.08-.19.08-.19.08-.19.08-.19.08-.19.08-.19.15-.39.15-.39.15-.4.3-.8.15-.4.15-.41.16-.41.16-.41.08-.21.08-.2.08-.2.08-.19v-.02s.02-.03.02-.03l.04-.11.12-.32.07-.2.08-.22.09-.23.05-.12.05-.12.05-.12.05-.12.05-.12.06-.12.06-.12.06-.12.06-.12.07-.12.07-.12.04-.07.04-.06.04-.06.05-.07.05-.07.06-.07.06-.07.07-.07.08-.08.09-.08.11-.08.13-.08.08-.04.07-.03.07-.03h.02s.1-.04.1-.04l.1-.03.1-.02h0s.11-.02.11-.02h.11s.11,0,.11,0Z"/>
    <path class="cls-1" d="M159.38,228.86l.12.02.12.02.11.03.11.04.11.05.1.06.1.07.09.07.09.08.08.09.07.09.07.1.06.1.05.11.04.11.03.11.03.12.02.12v.12s0,.12,0,.12l-.03.53-.03.53-.02.53-.02.53-.02.54-.02.54-.02.54-.02.54v.54s-.02.54-.02.54v.54s-.02.54-.02.54v.54s0,.54,0,.54v1.09s0,.54,0,.54v.54s.02.54.02.54v.54s.02.27.02.27v.27s.02.27.02.27v.27s.02.27.02.27v.27s.03.27.03.27v.27s.03.27.03.27l.02.27.02.27.02.27.02.27.02.26.02.26.02.26.02.26.02.26.02.26.03.26.03.26.03.26.03.26.03.27v.07s.01.08.01.08v.08s0,.08,0,.08v.15s0,.16,0,.16v.33s0,.34,0,.34v.35s-.02.36-.02.36v.18s0,.18,0,.18v.36s0,.17,0,.17v.17s.01.16.01.16v.07s.01.08.01.08v.07s.01.07.01.07v.07s.01.07.01.07v.06s.02.06.02.06v.05s.02.05.02.05v.05s.02.04.02.04h.02s.04.02.04.02h.04s.04.02.04.02h.05s.05.02.05.02h.05s.06.02.06.02h.06s.06.01.06.01h.06s.07,0,.07,0h.07s.07,0,.07,0h.07s.07,0,.07,0h.07s.07,0,.07,0h.07s.08,0,.08,0h.07s.15-.02.15-.02l.16-.02.37-.04.38-.04.38-.04.38-.04.39-.04.38-.04.19-.02.19-.02.19-.02.19-.03.19-.03.19-.03.19-.03.18-.03.18-.03.18-.03.18-.03.18-.03.18-.04.17-.04.17-.04.17-.04.17-.04.17-.04.16-.05.17-.05.11-.03.12-.02h.12s.12-.01.12-.01h.12s.12.02.12.02l.12.03.11.03.11.04.11.05.1.06.1.07.09.07.09.08.08.09.07.09.07.1.06.1.05.11.04.11.03.11.02.12.02.12v.12s0,.12,0,.12v.12s-.03.12-.03.12l-.03.11-.04.11-.05.11-.05.1-.06.1-.07.1-.08.09-.08.08-.09.08-.1.07-.1.06-.11.05-.11.05-.11.04-.19.06-.2.06-.2.05-.21.05-.21.05-.21.05-.21.04-.21.04-.21.04-.21.04-.21.04-.21.03-.21.03-.21.03-.21.03-.21.03-.21.03-.21.03-.2.02-.2.02-.4.05-.4.04-.39.04-.39.04-.38.04-.38.04-.19.02-.2.02h-.11s-.11.01-.11.01h-.11s-.11.01-.11.01h-.11s-.12,0-.12,0h-.12s-.12,0-.12,0h-.12s-.12-.01-.12-.01h-.13s-.13-.02-.13-.02l-.13-.02-.13-.02-.13-.02-.13-.03-.14-.03-.14-.04-.14-.04-.13-.04-.08-.03-.07-.03-.07-.03-.07-.03-.07-.03-.07-.03-.07-.03-.07-.04-.07-.04-.07-.04-.07-.04-.07-.04-.07-.05-.07-.05-.07-.05-.07-.06-.06-.05-.06-.06-.06-.06-.05-.06-.05-.06-.05-.06-.05-.06-.05-.07-.07-.11-.07-.12-.06-.12-.05-.12-.05-.11-.04-.11-.04-.11-.03-.11-.03-.11-.03-.11-.02-.11-.02-.11-.02-.11-.02-.11-.02-.11v-.11s-.03-.11-.03-.11v-.11s-.02-.11-.02-.11v-.11s-.02-.11-.02-.11v-.11s-.02-.21-.02-.21v-.21s-.01-.21-.01-.21v-.21s0-.2,0-.2v-.2s0-.2,0-.2v-.38s.02-.35.02-.35v-.32s0-.14,0-.14v-.23s0-.09,0-.09v-.03s0-.03,0-.03v-.02s0-.02,0-.02l-.03-.26-.03-.27-.03-.27-.03-.27-.03-.27-.03-.27-.02-.27-.02-.28-.02-.28-.02-.28-.02-.28-.02-.28-.02-.28-.02-.28-.02-.28-.02-.28-.02-.28v-.28s-.03-.28-.03-.28v-.28s-.02-.28-.02-.28v-.28s-.02-.28-.02-.28v-.28s-.02-.56-.02-.56v-.56s-.02-.56-.02-.56v-.56s0-.56,0-.56v-1.12s0-.56,0-.56v-.56s.02-.55.02-.55v-.55s.03-.55.03-.55l.02-.55.02-.55.02-.55.02-.55.02-.54.02-.54.03-.54.03-.53v-.12s.03-.12.03-.12l.03-.11.04-.11.05-.11.05-.11.06-.1.07-.1.08-.09.08-.08.09-.08.09-.07.1-.06.11-.06.11-.05.11-.04.11-.03.12-.02h.12s.12-.02.12-.02h.12Z"/>
  </g>
  <g>
    <path class="cls-5" d="M202.78,123.12c0-10.04-4.35-18.2-14.39-18.2h-45.69c-10.04,0-14.28,8.15-14.28,18.2v19.21c0,10.04,4.24,18.2,14.28,18.2h15.32l10.84,16.03s2.76,4.11,5.52,3.69c3.18-.49,2.68-5.88,2.68-5.88l.7-13.83h10.63c10.04,0,14.39-8.15,14.39-18.2v-19.21Z"/>
    <path class="cls-1" d="M156.05,123.4h.08s.08.02.08.02l.08.02.08.02.08.02.08.03.08.03.07.04.07.04.07.05.07.05.07.05.06.06.06.06.06.06.05.07.05.07.05.07.04.07.04.08.03.08.03.08.02.08.02.08.02.08v.08s.02.08.02.08v.08s0,.08,0,.08v.08s-.02.08-.02.08l-.02.08-.02.08-.02.08-.03.08-.03.08-.04.07-.04.07-.05.07-.05.07-.05.07-.06.06-.06.06-.06.06-.07.05-.21.16-.21.16-.21.15-.21.15-.21.15-.21.15-.21.15-.21.15-.21.15-.21.14-.21.14-.22.14-.43.28-.43.28-.43.27-.43.27-.42.27-.42.27-.42.27-.42.27-.21.13-.21.13-.2.14-.21.14-.08.05-.09.06-.09.05-.09.05-.09.05-.09.05-.17.09-.18.09-.18.09-.35.18-.17.09-.16.08-.16.09-.07.04-.07.04h0s.02.01.02.01l.05.03.05.02.11.05.11.05.12.05.1.04.11.04.11.04.11.04.11.04.11.04.23.08.23.08.24.08.48.17.19.06.18.06.18.06.19.06.19.06.19.06.19.06.19.05.19.05.19.05.39.11.8.21.15.04.16.04.31.09.31.09.3.09.3.09.29.09.58.18.29.09.28.08.28.08.14.04.14.04.14.04.14.04.14.04.14.03.14.03.14.03.14.03.14.03.08.02.08.02.08.03.08.03.08.04.07.04.07.05.07.05.07.05.06.05.06.06.06.06.05.06.05.07.05.07.04.07.04.07.03.08.03.08.03.08.02.08.02.08v.08s.02.08.02.08v.08s0,.08,0,.08v.08s-.02.08-.02.08l-.02.08-.02.08-.02.08-.03.08-.03.08-.04.08-.04.07-.04.07-.05.07-.05.07-.06.06-.06.06-.06.06-.06.05-.07.05-.07.05-.07.04-.08.04-.08.03-.08.03-.08.03-.08.02-.08.02h-.08s-.08.02-.08.02h-.08s-.08,0-.08,0h-.08s-.08-.02-.08-.02l-.08-.02-.16-.03-.16-.04-.16-.04-.16-.04-.16-.04-.16-.04-.16-.04-.16-.04-.16-.04-.16-.04-.31-.09-.31-.09-.3-.09-.59-.18-.29-.09-.29-.09-.29-.09-.28-.08-.28-.08-.14-.04-.14-.04-.8-.21-.4-.11-.21-.06-.2-.06-.21-.06-.21-.06-.21-.06-.21-.06-.21-.07-.21-.07-.21-.07-.2-.07-.49-.17-.25-.09-.25-.09-.25-.09-.13-.05-.13-.05-.13-.05-.13-.05-.13-.05-.14-.06-.16-.07-.16-.07-.16-.08-.08-.04-.08-.04-.08-.04-.08-.04-.08-.05-.08-.05-.08-.05-.08-.05-.08-.05-.08-.05-.08-.05-.07-.05-.07-.05-.07-.05-.07-.05-.07-.05-.07-.06-.07-.06-.06-.06-.06-.06-.06-.06-.06-.06-.06-.07-.06-.07-.06-.07-.05-.07-.05-.08-.05-.08-.05-.08-.05-.08-.04-.09-.04-.09-.04-.09-.03-.09-.03-.1-.03-.1-.02-.1-.02-.1v-.1s-.02-.1-.02-.1v-.1s0-.1,0-.1v-.1s.02-.1.02-.1v-.1s.03-.1.03-.1l.02-.09.03-.09.03-.09.03-.09.03-.08.04-.08.04-.08.04-.07.04-.07.04-.07.04-.07.05-.06.05-.06.05-.06.05-.06.05-.06.09-.1.1-.1.1-.09.1-.09.1-.08.1-.08.1-.07.1-.07.1-.07.1-.07.1-.06.1-.06.1-.06.1-.06.1-.06.1-.06.19-.1.19-.1.19-.1.35-.18.16-.08.15-.08.14-.08.06-.03.06-.03.05-.03.05-.03.04-.02.04-.03.21-.14.21-.14.21-.14.21-.14.43-.28.43-.27.43-.27.42-.27.42-.27.42-.27.42-.27.41-.27.2-.14.2-.14.2-.14.2-.14.2-.14.2-.14.2-.14.2-.14.19-.14.19-.14.19-.14.19-.15.07-.05.07-.05.07-.04.08-.04.08-.03.08-.03.08-.02.08-.02.08-.02h.08s.08-.02.08-.02h.08s.08,0,.08,0Z"/>
    <path class="cls-1" d="M173.97,119.64l.12.02.12.03.12.04.11.05.11.05.1.06.1.07.09.08.09.08.08.09.07.1.06.1.06.11.05.11.04.11.03.12.02.12v.12s.01.12.01.12v.12s-.03.12-.03.12l-.03.12-.04.12-.05.11-.21.47-.22.48-.22.47-.22.47-.22.47-.22.47-.23.47-.23.47-.23.47-.23.46-.23.46-.23.46-.23.46-.23.46-.47.91-.47.91-.47.91-.47.91-.47.91-.23.45-.23.45-.23.45-.23.45-.23.46-.23.45-.22.46-.22.45-.15.31-.14.31-.14.31-.14.31-.14.31-.14.31-.13.31-.13.32-.13.32-.13.32-.27.64-.27.65-.27.65-.14.33-.14.33-.14.33-.14.33-.14.33-.15.33-.15.33-.15.33-.15.33-.08.17-.08.16-.08.16-.08.16-.08.16-.08.16-.09.16-.09.16-.09.16-.09.16-.09.16-.09.16-.09.16-.09.16-.07.1-.07.1-.08.09-.09.08-.09.08-.1.07-.1.06-.11.05-.11.05-.12.03-.12.03-.12.02h-.12s-.12,0-.12,0h-.12s-.12-.03-.12-.03l-.12-.03-.11-.04-.11-.05-.11-.06-.1-.06-.1-.07-.09-.08-.08-.09-.08-.09-.07-.1-.06-.11-.05-.11-.04-.11-.04-.12-.03-.12-.02-.12v-.12s0-.12,0-.12v-.12s.03-.12.03-.12l.03-.12.04-.11.05-.11.06-.11.09-.15.08-.14.08-.14.08-.14.08-.14.08-.15.08-.15.08-.15.08-.15.08-.15.08-.15.07-.15.07-.15.07-.15.15-.3.14-.31.14-.31.14-.31.14-.31.14-.31.14-.31.13-.32.13-.32.27-.64.27-.64.27-.65.14-.33.14-.33.14-.33.14-.33.14-.33.15-.33.15-.33.15-.33.15-.33.16-.33.23-.47.23-.47.23-.46.23-.46.23-.46.23-.46.23-.46.24-.46.47-.92.47-.91.47-.91.47-.91.47-.91.23-.45.23-.45.23-.45.23-.45.23-.45.22-.45.22-.46.22-.46.22-.46.22-.46.21-.46.21-.46.21-.46.21-.47.05-.11.06-.1.07-.1.08-.09.08-.09.09-.08.1-.07.1-.06.11-.06.11-.05.11-.04.12-.03.12-.02h.12s.12-.01.12-.01h.12Z"/>
    <path class="cls-1" d="M179.24,124.72h.1s.09.02.09.02l.09.02.09.02.09.03.09.04.08.04.08.05.08.05.08.06.07.06.07.07.06.07.09.1.08.09.09.09.09.09.09.09.09.09.09.09.09.09.1.09.1.09.1.09.1.09.1.09.1.09.11.09.11.09.11.09.11.09.11.09.11.09.11.09.11.09.12.09.11.09.24.18.24.17.24.17.25.17.25.17.25.17.51.35.51.35.26.18.26.18.26.18.26.18.26.18.25.18.25.19.13.1.13.09.12.1.12.1.12.1.09.07h0s.03.02.03.02l.04.02.05.03.13.07.32.17.18.1.19.11.1.06.1.06.1.06.1.06.1.07.1.07.1.07.1.08.1.08.1.08.06.05.05.05.06.06.06.06.06.07.06.07.06.08.06.09.06.1.06.11.05.13.04.12.03.1.02.08.02.08v.08s.02.08.02.08v.08s.01.08.01.08v.08s0,.08,0,.08v.08s0,.08,0,.08v.08s-.02.07-.02.07v.07s-.02.07-.02.07l-.02.08-.03.13-.04.13-.05.12-.05.12-.05.11-.06.11-.06.1-.06.1-.06.1-.07.09-.07.09-.07.09-.07.08-.07.08-.07.08-.07.08-.07.07-.07.07-.07.07-.07.07-.07.07-.08.07-.08.06-.08.06-.08.06-.08.06-.08.06-.08.06-.15.11-.15.11-.15.1-.15.1-.14.09-.14.09-.13.08-.13.08-.12.07-.12.07-.2.11-.17.09-.17.09-.17.09-.17.09-.17.09-.17.09-.17.08-.17.08-.17.08-.17.08-.17.08-.17.08-.17.08-.17.08-.17.08-.17.07-.17.07-.34.14-.34.14-.34.14-.34.14-.34.13-.34.13-.67.26-.67.26-.33.13-.33.13-.33.13-.33.13-.32.13-.32.14-.32.14-.16.07-.16.07-.16.07-.16.07-.15.07-.15.07-.15.07-.15.07-.15.08-.15.08-.15.08-.15.08-.15.08-.15.08-.08.04-.09.04-.09.03-.09.03-.09.02-.09.02h-.09s-.09.01-.09.01h-.1s-.09-.01-.09-.01h-.09s-.09-.03-.09-.03l-.09-.03-.09-.03-.09-.04-.09-.04-.08-.05-.08-.05-.08-.06-.07-.06-.07-.07-.06-.07-.06-.07-.06-.08-.05-.08-.05-.08-.04-.09-.03-.09-.03-.09-.02-.09-.02-.09v-.09s-.02-.09-.02-.09v-.1s0-.09,0-.09v-.1s.03-.09.03-.09l.02-.09.03-.09.03-.09.04-.09.05-.08.05-.08.05-.08.06-.07.06-.07.07-.07.07-.06.08-.06.08-.05.08-.05.16-.09.17-.09.17-.09.17-.09.17-.09.17-.08.17-.08.17-.08.17-.08.17-.08.17-.08.17-.08.17-.08.17-.08.34-.15.34-.14.34-.14.34-.14.34-.14.34-.13.34-.13.67-.26.67-.26.33-.13.33-.13.33-.13.32-.13.32-.13.32-.14.16-.07.16-.07.16-.07.16-.07.15-.07.15-.07.15-.07.15-.07.15-.07.15-.07.15-.07.15-.08.15-.08.15-.08.15-.08.15-.08.14-.08.18-.1.09-.05.1-.06.1-.06.11-.07.11-.07.11-.07.11-.07.11-.08.11-.08.11-.08.05-.04.05-.04.05-.04.05-.04.05-.04.05-.04h0s-.01-.02-.01-.02l-.16-.09-.32-.18-.15-.09-.08-.05-.08-.05-.08-.05-.08-.05-.09-.06-.08-.06-.13-.1-.11-.08-.11-.08-.11-.08-.11-.08-.11-.08-.23-.17-.23-.17-.24-.17-.24-.17-.24-.17-.25-.17-.25-.17-.51-.35-.52-.35-.26-.18-.26-.18-.26-.18-.26-.19-.26-.19-.26-.19-.13-.1-.13-.1-.13-.1-.13-.1-.13-.1-.13-.1-.13-.1-.13-.1-.12-.11-.13-.11-.12-.11-.12-.11-.12-.11-.12-.11-.12-.11-.12-.11-.12-.11-.12-.12-.12-.12-.12-.12-.11-.12-.11-.12-.11-.12-.1-.12-.06-.07-.06-.08-.05-.08-.05-.08-.04-.09-.04-.09-.03-.09-.02-.09-.02-.09v-.09s-.02-.09-.02-.09v-.1s0-.1,0-.1v-.09s.03-.09.03-.09l.02-.09.03-.09.03-.09.04-.09.04-.08.05-.08.05-.08.06-.07.06-.07.07-.07.07-.06.08-.06.08-.05.08-.05.08-.04.09-.04.09-.03.09-.03.09-.02.09-.02h.09s.09-.01.09-.01h.1Z"/>
  </g>
  <g>
    <path class="cls-5" d="M289.68,142.46c0-10.04,4.35-18.2,14.39-18.2h45.69c10.04,0,14.28,8.15,14.28,18.2v19.21c0,10.04-4.24,18.2-14.28,18.2h-15.32l-10.84,16.03s-2.76,4.11-5.52,3.69c-3.18-.49-2.68-5.88-2.68-5.88l-.7-13.83h-10.63c-10.04,0-14.39-8.15-14.39-18.2v-19.21Z"/>
    <path class="cls-1" d="M313,139.53h.1s.1,0,.1,0h.1s.1.02.1.02h.1s.1.03.1.03l.1.02.1.02.1.03.1.03.1.03.1.03.1.04.1.04.1.05.09.05.09.05.09.05.09.06.09.06.09.06.09.07.08.07.08.07.08.07.08.08.08.08.07.08.07.08.07.09.07.09.06.09.06.09.06.09.07.12.07.12.07.12.06.12.06.12.06.12.05.13.05.13.05.13.05.13.04.13.04.13.04.13.04.13.03.13.03.13.03.13.03.13.02.13.02.13.02.13.02.13.02.13v.13s.02.13.02.13v.12s.02.12.02.12v.12s.01.12.01.12v.12s0,.12,0,.12v.12s0,.12,0,.12v.12s0,.12,0,.12v.12s0,.12,0,.12v.12s-.02.12-.02.12v.12s-.02.12-.02.12v.12s-.03.23-.03.23l-.03.23-.03.23-.03.22-.03.22-.03.22-.03.21-.03.21-.04.21-.07.39-.02.11-.03.11-.04.11-.05.1-.06.1-.06.1-.07.09-.08.09-.08.08-.09.07-.09.07-.1.06-.1.05-.11.04-.11.04-.11.03-.11.02h-.11s-.12.01-.12.01h-.12s-.11-.02-.11-.02l-.11-.02-.11-.03-.11-.04-.1-.05-.1-.06-.1-.06-.09-.07-.09-.08-.08-.08-.07-.09-.07-.09-.06-.1-.05-.1-.04-.11-.04-.11-.03-.11-.02-.11v-.11s-.01-.12-.01-.12v-.11s.02-.11.02-.11l.07-.39.03-.19.03-.19.03-.19.03-.19.03-.19.03-.19.02-.19.02-.19.02-.19v-.09s.02-.09.02-.09v-.09s.01-.09.01-.09v-.09s0-.09,0-.09v-.09s0-.09,0-.09v-.09s0-.09,0-.09v-.09s0-.09,0-.09v-.09s0-.09,0-.09v-.08s0-.08,0-.08v-.08s-.01-.08-.01-.08v-.08s-.02-.08-.02-.08v-.08s-.02-.08-.02-.08v-.08s-.03-.08-.03-.08l-.02-.08-.02-.07-.02-.07-.02-.07-.02-.07-.02-.07-.02-.07-.02-.07-.02-.07-.02-.07-.03-.06-.03-.06-.03-.06-.03-.06-.03-.06-.03-.06-.03-.06-.04-.06-.02-.03-.02-.03-.02-.02-.02-.02-.02-.02-.02-.02v-.02s-.03-.01-.03-.01h-.01s-.01-.02-.01-.02h-.01s0-.02,0-.02h0s0-.01,0-.01h0s0-.01,0-.01h0s0,0,0,0h0s0,0,0,0h0s0,0,0,0h0s0,0,0,0h0s0,0,0,0h-.01s-.01,0-.01,0h-.01s-.01,0-.01,0h-.02s-.02,0-.02,0h-.02s-.02,0-.02,0h-.06s-.02,0-.02,0h-.02s-.03,0-.03,0h-.03s-.03,0-.03,0h-.03s-.03.01-.03.01h-.03s-.03.01-.03.01h-.03s-.04.02-.04.02h-.04s-.04.02-.04.02h-.04s-.04.02-.04.02h-.04s-.04.03-.04.03l-.04.02-.04.02-.04.02-.04.02-.04.02-.04.02-.09.04-.09.05-.09.05-.09.05-.09.05-.09.06-.09.06-.09.06-.09.06-.09.07-.09.07-.09.07-.09.07-.09.07-.09.07-.09.07-.09.07-.08.08-.08.08-.08.07-.08.07-.08.07-.07.07-.07.07-.07.07-.06.07-.06.07-.06.06-.05.06-.05.06-.04.05-.04.05-.03.05-.03.05-.05.08-.06.08-.05.08-.05.09-.05.09-.05.09-.05.09-.05.09-.05.09-.05.09-.05.09-.05.09-.05.09-.05.09-.05.09-.05.09-.04.09-.04.09-.04.09-.04.09-.04.1-.04.1-.04.1-.04.1-.04.1-.04.1-.04.1-.04.1-.03.1-.03.1-.03.1-.03.1-.03.1-.03.1-.03.1-.03.1-.03.1-.03.1-.03.1-.03.1-.03.1-.03.1-.02.1-.02.11-.02.11-.02.11-.02.11-.02.11-.02.11-.02.1-.04.22-.04.21-.03.22-.03.22-.03.22-.02.22-.02.22-.02.22-.02.22v.22s-.02.22-.02.22v.22s-.01.22-.01.22v.22s0,.22,0,.22v.22s0,.22,0,.22v.22s.02.22.02.22v.22s.02.22.02.22l.02.22.02.22.02.22.02.22.03.22.03.22.03.22.03.22.03.22.04.22.04.21.04.21.04.21.04.21.05.21.05.21.05.21.05.21.02.07.02.07.02.07.02.07.02.07.02.07.02.07.02.07.02.06.02.06.02.06.02.06.02.06.02.06.03.06.03.06.03.06.03.06.03.06.03.05.03.05.03.05.03.05.03.05.03.05.03.05.03.05.03.05.03.05.03.05.03.05.03.04.03.04.03.04.03.04.03.04.03.04.03.04.03.04.03.04.03.04.03.04.03.03.03.03.03.03.03.03.03.03.03.03.03.03.04.03.03.03.03.03.04.03.03.03.04.02.04.02.04.02.03.02.04.02.04.02.04.02.04.02.04.02.04.02.04.02.04.02.04.02.04.02h.04s.04.03.04.03h.04s.04.02.04.02h.04s.04.02.04.02h.04s.04.02.04.02h.04s.04.02.04.02h.04s.04.01.04.01h.04s.04.01.04.01h.04s.04,0,.04,0h.04s.04,0,.04,0h.04s.04,0,.04,0h.04s.04,0,.04,0h.04s.04,0,.04,0h.04s.05,0,.05,0h.05s.05,0,.05,0h.05s.05-.01.05-.01h.05s.05-.02.05-.02h.05s.05-.02.05-.02h.05s.05-.02.05-.02h.05s.05-.03.05-.03l.05-.02.05-.02.05-.02.05-.02.05-.02.05-.02.05-.02.06-.02.06-.02.06-.02.06-.03.06-.03.06-.03.06-.03.06-.03.06-.03.06-.03.06-.04.06-.04.06-.04.06-.04.07-.05.1-.06.1-.05.11-.04.11-.04.11-.03.11-.02h.12s.11-.01.11-.01h.12s.11.02.11.02l.11.02.11.03.11.04.11.05.1.06.1.06.09.07.09.08.08.08.07.09.07.09.06.1.05.1.04.11.04.11.03.11.02.11v.11s.01.12.01.12v.11s-.02.11-.02.11l-.02.11-.03.11-.04.11-.05.1-.06.1-.06.1-.07.09-.08.09-.08.08-.09.07-.09.07-.09.06-.09.06-.09.06-.09.06-.1.05-.09.05-.1.05-.1.05-.1.05-.1.05-.1.05-.1.04-.1.04-.1.04-.1.04-.1.04-.1.04-.1.04-.1.03-.1.03-.1.03-.1.03-.1.03-.1.03-.1.02-.1.02-.1.02-.1.02-.1.02-.1.02h-.1s-.1.03-.1.03h-.1s-.1.02-.1.02h-.1s-.1.01-.1.01h-.1s-.1,0-.1,0h-.19s-.1,0-.1,0h-.1s-.1-.01-.1-.01h-.1s-.1-.02-.1-.02h-.09s-.09-.02-.09-.02l-.09-.02-.09-.02-.09-.02-.09-.02-.09-.02-.09-.02-.09-.02-.09-.03-.09-.03-.09-.03-.09-.03-.09-.03-.09-.03-.09-.04-.09-.04-.09-.04-.08-.04-.08-.04-.08-.04-.08-.04-.08-.05-.08-.05-.08-.05-.08-.05-.08-.05-.08-.05-.08-.05-.08-.05-.08-.06-.07-.06-.07-.06-.07-.06-.07-.06-.07-.06-.07-.06-.07-.06-.07-.07-.07-.07-.07-.07-.06-.07-.06-.07-.06-.07-.06-.07-.06-.07-.06-.07-.06-.07-.06-.08-.06-.08-.06-.08-.06-.08-.05-.08-.05-.08-.05-.08-.05-.08-.05-.08-.05-.08-.05-.08-.05-.08-.05-.09-.05-.09-.05-.09-.04-.09-.04-.09-.04-.09-.04-.09-.04-.09-.04-.09-.04-.09-.04-.09-.04-.09-.04-.09-.04-.1-.03-.1-.03-.1-.03-.1-.03-.1-.03-.1-.03-.1-.03-.1-.03-.1-.03-.1-.06-.24-.06-.24-.05-.24-.05-.24-.05-.24-.05-.24-.05-.24-.04-.25-.04-.25-.04-.25-.04-.25-.03-.25-.03-.25-.03-.25-.03-.25-.02-.25-.02-.25-.02-.26-.02-.26v-.26s-.02-.26-.02-.26v-.26s-.01-.26-.01-.26v-.26s0-.26,0-.26v-.26s.01-.26.01-.26v-.26s.02-.26.02-.26l.02-.26.02-.26.02-.26.02-.26.03-.26.03-.26.04-.26.04-.26.04-.26.05-.25.02-.13.02-.13.03-.13.03-.13.03-.13.03-.13.03-.13.03-.13.03-.13.03-.13.03-.12.03-.13.04-.12.04-.13.04-.12.04-.12.04-.12.04-.12.04-.12.04-.12.04-.12.04-.12.04-.12.05-.12.05-.12.05-.12.05-.12.05-.12.05-.12.05-.12.05-.12.05-.12.05-.12.06-.12.06-.12.06-.12.06-.12.06-.12.06-.11.06-.11.06-.11.06-.11.07-.11.07-.11.07-.11.07-.11.07-.11.07-.11.07-.11.08-.11.07-.09.07-.1.07-.1.08-.1.08-.1.08-.1.09-.1.09-.1.09-.1.09-.1.1-.1.1-.1.1-.1.11-.1.11-.1.11-.1.11-.1.12-.1.12-.1.12-.1.12-.1.13-.1.13-.1.13-.09.13-.09.14-.09.14-.09.14-.09.14-.09.14-.08.15-.08.15-.08.15-.08.15-.07.08-.04.08-.03.08-.03.08-.03.08-.03.08-.03.08-.03.08-.03.08-.03.08-.03.08-.02.08-.02.09-.02.09-.02.09-.02.09-.02.09-.02.09-.02h.09s.09-.03.09-.03h.09s.09-.02.09-.02h.09s.09,0,.09,0h.09s.09,0,.09,0Z"/>
    <path class="cls-1" d="M326.66,141.6h.12s.12,0,.12,0h.12s.12.02.12.02h.12s.12.03.12.03l.12.02.12.02.12.02.12.02.11.03.12.03.11.03.11.03.1.03.1.04.1.04.1.05.09.06.09.07.08.07.08.08.07.08.07.09.06.09.05.1.05.1.04.1.03.11.02.11.02.11v.11s.01.11.01.11v.11s-.02.11-.02.11l-.02.11-.03.11-.04.1-.04.1-.05.1-.06.09-.06.09-.07.08-.08.08-.08.07-.09.07-.09.06-.1.05-.1.05-.1.04-.11.03-.11.02-.11.02h-.11s-.11.01-.11.01h-.11s-.11-.02-.11-.02l-.11-.02-.11-.03-.07-.02-.05-.02h-.05s-.05-.03-.05-.03h-.05s-.05-.02-.05-.02h-.05s-.06-.02-.06-.02h-.06s-.06-.02-.06-.02h-.06s-.06-.01-.06-.01h-.06s-.06,0-.06,0h-.06s-.06,0-.06,0h-.12s-.06,0-.06,0h-.06s-.06,0-.06,0h-.06s-.06.01-.06.01h-.06s-.06.02-.06.02h-.06s-.07.02-.07.02h-.06s-.07.03-.07.03l-.07.02-.07.02-.07.02-.07.02-.07.02-.07.02-.07.02-.07.02-.07.02-.07.02-.07.02-.07.03-.07.03-.07.03-.07.03-.07.03-.07.03-.07.03-.06.03-.06.03-.06.03-.06.04-.06.04-.06.04-.06.04-.06.04-.06.04-.06.04-.06.04-.06.04-.06.04-.06.04-.06.04-.06.05-.06.05-.06.05-.05.05-.05.05-.05.05-.05.05-.05.05-.05.05-.05.05-.05.05-.05.05-.05.05-.05.05-.05.05-.04.05-.04.05-.04.05-.04.05-.04.05-.04.05-.04.05-.04.06-.04.06-.03.06-.03.06-.03.06-.03.06-.03.06-.03.06-.03.06-.03.06-.02.06-.02.06-.02.06-.02.06-.02.06-.02.06-.02.06-.02.06-.02.06-.02.06v.06s-.02.06-.02.06v.06s-.02.06-.02.06v.06s-.02.06-.02.06v.06s-.01.06-.01.06v.06s0,.06,0,.06v.06s0,.06,0,.06v.06s0,.06,0,.06v.06s0,.06,0,.06v.06s.01.06.01.06v.06s.02.06.02.06v.06s.02.06.02.06v.06s.03.06.03.06l.02.06.02.06.02.06.02.06.02.06.03.06.03.06.03.06.03.06.03.06.04.06.04.06.04.06.04.06.04.06.04.07.05.07.05.07.05.07.05.07.05.07.05.07.05.07.05.07.11.14.12.14.12.14.12.14.08.09.08.09.08.09.08.09.09.09.09.09.09.09.09.09.19.18.19.18.19.18.2.18.2.19.22.21.24.23.25.24.13.13.13.13.14.13.14.14.14.14.14.15.14.15.14.15.14.15.14.16.14.16.14.16.14.17.14.17.14.17.14.17.13.18.13.18.07.09.06.09.06.09.06.09.06.09.06.09.06.09.06.09.06.09.06.1.06.1.05.1.05.1.05.1.05.1.05.1.05.1.05.1.05.1.04.1.04.1.04.11.04.11.04.11.04.11.03.11.03.11.03.11.03.11.02.11.02.12.02.12v.12s.03.12.03.12v.12s.01.12.01.12v.12s0,.12,0,.12v.12s-.02.12-.02.12l-.02.12-.02.13-.02.13-.03.13-.03.13-.04.12-.04.12-.05.12-.05.12-.06.12-.06.12-.07.12-.07.11-.08.11-.08.11-.08.11-.09.1-.09.1-.1.1-.1.09-.1.09-.11.09-.11.09-.11.08-.11.08-.12.08-.12.08-.12.07-.13.07-.13.07-.13.06-.13.06-.14.06-.14.06-.14.06-.15.05-.16.06-.16.05-.17.05-.16.05-.17.04-.17.04-.17.04-.17.03-.16.03-.17.03-.17.02-.16.02-.16.02-.16.02h-.16s-.15.02-.15.02h-.11s-.11,0-.11,0h-.11s-.11-.03-.11-.03l-.11-.03-.1-.04-.1-.04-.1-.05-.09-.06-.09-.06-.09-.07-.08-.08-.07-.08-.07-.09-.06-.09-.05-.1-.05-.1-.04-.1-.03-.11-.03-.11-.02-.11v-.11s-.01-.11-.01-.11v-.11s.02-.11.02-.11l.02-.11.03-.11.04-.1.04-.1.05-.1.06-.09.06-.09.07-.08.08-.08.08-.07.09-.07.09-.06.1-.05.1-.05.1-.04.11-.03.11-.03.11-.02h.11s.13-.02.13-.02h.12s.11-.02.11-.02h.11s.11-.03.11-.03l.11-.02.11-.02.11-.02.11-.02.11-.02.11-.02.11-.03.11-.03.1-.03.1-.03.1-.04.09-.03.09-.03.08-.03.08-.03.07-.03.07-.03.06-.03.06-.03.05-.03.05-.03.05-.03.04-.03.04-.03.04-.03.03-.03.03-.03.03-.02.02-.02.02-.02.02-.02.02-.02v-.02s.02-.02.02-.02v-.02s.02-.02.02-.02v-.02s.02-.02.02-.02h0s0-.03,0-.03v-.02s.01-.02.01-.02v-.02s0-.02,0-.02v-.02s0-.02,0-.02v-.02s0-.02,0-.02v-.02s0-.03,0-.03v-.06s0-.03,0-.03v-.03s0-.04,0-.04v-.04s-.01-.04-.01-.04v-.04s-.02-.04-.02-.04v-.05s-.02-.05-.02-.05l-.02-.05-.02-.05-.02-.05-.02-.05-.02-.05-.02-.06-.02-.06-.02-.06-.03-.06-.03-.06-.03-.06-.03-.06-.03-.06-.03-.06-.04-.07-.04-.06-.04-.07-.04-.07-.04-.07-.04-.07-.04-.07-.05-.07-.05-.07-.05-.07-.05-.07-.05-.07-.1-.14-.11-.14-.11-.14-.11-.14-.11-.14-.12-.14-.12-.14-.12-.14-.12-.14-.12-.14-.12-.13-.12-.13-.12-.13-.12-.13-.12-.12-.12-.12-.12-.12-.12-.12-.23-.23-.22-.21-.21-.2-.2-.18-.2-.19-.2-.19-.21-.2-.2-.2-.11-.1-.1-.1-.1-.11-.1-.11-.1-.11-.1-.11-.1-.11-.1-.11-.14-.15-.14-.16-.14-.16-.14-.17-.07-.09-.07-.09-.07-.09-.07-.09-.07-.09-.07-.1-.07-.1-.07-.1-.07-.1-.07-.1-.07-.1-.06-.11-.06-.11-.06-.11-.06-.11-.06-.11-.06-.12-.06-.12-.05-.12-.05-.12-.05-.13-.05-.13-.04-.13-.04-.13-.03-.13-.03-.12-.03-.12-.03-.13-.02-.12-.02-.13-.02-.13v-.12s-.02-.12-.02-.12v-.12s-.01-.12-.01-.12v-.12s0-.12,0-.12v-.12s0-.12,0-.12v-.12s.02-.12.02-.12v-.12s.03-.12.03-.12l.02-.12.02-.12.02-.12.02-.12.03-.12.03-.11.03-.11.03-.11.04-.11.04-.11.04-.11.04-.11.04-.11.05-.11.05-.11.05-.11.05-.1.05-.1.05-.1.06-.1.06-.1.06-.1.06-.1.06-.1.06-.1.06-.1.07-.09.07-.09.07-.09.07-.09.07-.09.07-.09.07-.09.08-.09.08-.08.08-.08.08-.08.08-.08.08-.08.08-.08.08-.08.08-.08.09-.08.09-.08.09-.07.09-.07.09-.07.09-.07.09-.07.09-.07.09-.07.09-.06.09-.06.1-.06.1-.06.1-.06.1-.06.1-.06.1-.06.1-.05.1-.05.1-.05.1-.05.1-.05.1-.05.1-.05.11-.05.11-.04.11-.04.11-.04.11-.04.11-.04.11-.04.11-.03.11-.03.11-.03.11-.03.11-.03.11-.03.11-.02.11-.02.11-.02.11-.02.11-.02.11-.02h.11s.11-.03.11-.03h.11s.11-.02.11-.02h.11s.11-.01.11-.01h.12s.11,0,.11,0h.12Z"/>
    <path class="cls-1" d="M338.57,143.01h.11s.11,0,.11,0h.11s.11.02.11.02h.11s.11.02.11.02h.11s.11.03.11.03l.11.02.11.02.11.02.11.02.11.02.11.03.11.03.11.03.11.03.11.04.11.04.11.04.11.04.11.04.11.05.1.05.1.05.1.05.1.05.1.06.09.05.09.06.09.06.08.07.08.08.07.08.07.09.06.09.05.09.05.1.04.1.03.1.03.1.02.11v.11s.02.11.02.11v.11s-.02.11-.02.11l-.02.11-.03.11-.03.1-.04.1-.05.1-.05.09-.06.09-.07.08-.07.08-.08.08-.08.07-.09.06-.09.06-.1.05-.1.04-.1.04-.1.03-.11.02h-.11s-.11.02-.11.02h-.21s-.11-.02-.11-.02l-.11-.02-.1-.03-.1-.04-.1-.05-.09-.05-.06-.04-.05-.03-.05-.03-.05-.03-.05-.02-.05-.02-.05-.02-.05-.02-.05-.02-.05-.02-.05-.02-.05-.02-.05-.02-.06-.02-.05-.02h-.05s-.06-.03-.06-.03h-.06s-.06-.02-.06-.02h-.06s-.06-.02-.06-.02h-.06s-.06-.02-.06-.02h-.06s-.06-.01-.06-.01h-.06s-.06,0-.06,0h-.06s-.06,0-.06,0h-.06s-.06,0-.06,0h-.06s-.06,0-.06,0h-.06s-.06,0-.06,0h-.06s-.06.01-.06.01h-.06s-.06.01-.06.01h-.06s-.06.02-.06.02h-.06s-.06.02-.06.02h-.06s-.06.03-.06.03l-.06.02-.06.02-.06.02-.06.02-.06.02-.06.02-.06.02-.06.02-.06.02-.06.02-.06.02-.05.02-.05.02-.05.02-.05.03-.05.03-.05.03-.05.03-.05.03-.05.03-.05.03-.05.03-.05.03-.05.03-.05.03-.04.03-.04.03-.04.03-.04.03-.04.03-.04.04-.04.04-.04.04-.04.04-.04.04-.04.04-.03.04-.03.04-.03.04-.03.04-.03.04-.03.04-.03.04-.03.04-.03.04-.03.04-.02.04-.02.04-.02.04-.02.04-.02.04-.02.04-.02.04-.02.04-.02.04-.02.04-.02.05v.04s-.03.05-.03.05v.05s-.02.05-.02.05v.05s-.02.05-.02.05v.05s-.02.05-.02.05v.05s-.01.05-.01.05v.05s0,.05,0,.05v.05s0,.05,0,.05v.11s0,.05,0,.05v.06s0,.06,0,.06v.06s.02.06.02.06v.06s.02.06.02.06v.06s.03.06.03.06l.02.07v.03s.02.03.02.03v.03s.02.03.02.03v.03s.02.03.02.03v.03s.03.03.03.03v.03s.03.03.03.03l.02.03v.03s.05.07.05.07l.03.07.04.07.04.07.04.07.05.07.05.07.05.07.05.07.05.07.06.07.06.07.06.07.06.07.06.07.07.07.07.07.07.07.07.07.07.08.07.07.08.07.16.15.16.15.06.06.06.06.06.06.07.06.07.06.07.06.07.06.07.06.15.12.15.12.16.12.16.12.17.12.17.12.35.25.18.13.18.13.18.14.18.14.18.14.18.15.09.08.09.08.09.08.09.08.09.08.09.08.09.08.09.08.09.09.09.09.09.09.09.09.09.09.09.09.09.09.09.1.08.1.08.1.08.1.08.11.08.11.08.11.08.11.07.11.07.12.07.12.07.12.06.12.05.11.05.11.05.11.05.11.05.11.04.11.04.11.04.11.04.11.03.11.03.11.03.11.02.11.02.11.02.11.02.11.02.11v.11s.02.11.02.11v.11s.02.11.02.11v.11s0,.11,0,.11v.11s0,.11,0,.11v.11s-.01.11-.01.11v.11s-.02.11-.02.11v.11s-.03.11-.03.11l-.02.11-.02.11-.02.11-.02.11-.03.1-.03.1-.03.1-.03.1-.03.1-.04.1-.04.1-.04.1-.04.1-.04.1-.05.09-.05.09-.05.09-.05.09-.05.09-.05.09-.05.09-.06.09-.06.09-.06.09-.06.08-.06.08-.06.08-.06.08-.06.08-.07.08-.07.08-.07.08-.07.08-.07.07-.07.07-.07.07-.08.07-.08.07-.08.07-.08.07-.08.07-.08.06-.08.06-.08.06-.08.06-.08.06-.08.06-.09.06-.09.06-.09.05-.09.05-.09.05-.09.05-.09.05-.09.05-.09.05-.09.05-.09.04-.1.04-.1.04-.1.04-.1.04-.1.04-.1.03-.1.03-.1.03-.1.03-.1.03-.1.03-.1.02-.1.02-.1.02-.11.02-.11.02-.11.02-.11.02h-.11s-.11.02-.11.02h-.11s-.11.02-.11.02h-.11s-.11,0-.11,0h-.11s-.11,0-.11,0h-.11s-.11,0-.11,0h-.11s-.11-.01-.11-.01h-.11s-.11-.02-.11-.02h-.11s-.11-.03-.11-.03l-.11-.02-.11-.02-.11-.02-.11-.02-.1-.02-.1-.03-.1-.04-.1-.04-.1-.05-.09-.06-.09-.06-.08-.07-.08-.07-.07-.08-.07-.08-.06-.09-.05-.09-.05-.1-.04-.1-.03-.1-.03-.1-.02-.11v-.11s-.02-.11-.02-.11v-.11s.01-.11.01-.11l.02-.11.03-.11.03-.1.04-.1.05-.1.05-.09.06-.09.07-.09.07-.08.08-.08.08-.07.09-.06.09-.06.09-.05.1-.05.1-.04.1-.03.11-.02.11-.02h.11s.11,0,.11,0h.11s.11.02.11.02l.11.02.07.02h.06s.06.02.06.02h.06s.06.02.06.02h.06s.06.02.06.02h.06s.06.01.06.01h.06s.06,0,.06,0h.06s.06,0,.06,0h.11s.06,0,.06,0h.06s.05,0,.05,0h.06s.05-.01.05-.01h.06s.05-.01.05-.01h.05s.05-.02.05-.02h.05s.05-.02.05-.02h.05s.05-.02.05-.02h.05s.05-.03.05-.03l.05-.02.05-.02.05-.02.05-.02.05-.02.05-.02.05-.02.05-.02.05-.02.05-.02.05-.02.05-.02.05-.02.05-.03.05-.03.05-.03.05-.03.05-.03.05-.03.05-.03.05-.03.05-.03.04-.03.04-.03.04-.03.04-.03.04-.03.04-.04.04-.04.04-.04.04-.04.04-.04.04-.04.04-.04.04-.04.04-.04.03-.04.03-.04.03-.04.03-.04.03-.04.03-.04.03-.04.03-.04.03-.04.03-.04.03-.04.03-.04.02-.04.02-.04.02-.04.02-.04.02-.04.02-.04.02-.04.02-.04.02-.04.02-.04.02-.04v-.05s.03-.04.03-.04v-.05s.02-.05.02-.05v-.05s.02-.05.02-.05v-.05s.02-.05.02-.05v-.05s.01-.05.01-.05v-.05s0-.05,0-.05v-.05s0-.05,0-.05v-.05s0-.05,0-.05v-.05s0-.05,0-.05v-.05s0-.05,0-.05v-.05s-.01-.05-.01-.05v-.05s-.02-.05-.02-.05v-.05s-.02-.05-.02-.05v-.05s-.02-.05-.02-.05v-.05s-.03-.05-.03-.05l-.02-.05-.02-.05-.02-.05-.02-.05-.02-.05-.02-.05-.02-.05-.03-.06-.03-.05-.03-.06-.03-.06-.04-.06-.04-.06-.04-.06-.04-.06-.04-.06-.04-.06-.05-.06-.05-.06-.05-.06-.05-.06-.05-.06-.05-.06-.06-.06-.06-.06-.06-.06-.06-.06-.06-.06-.06-.06-.07-.06-.07-.06-.07-.06-.07-.06-.07-.06-.07-.06-.07-.06-.07-.06-.16-.12-.16-.12-.16-.12-.17-.12-.17-.12-.17-.12-.35-.25-.18-.13-.18-.13-.18-.13-.18-.14-.18-.14-.18-.14-.09-.08-.09-.07-.09-.08-.09-.08-.09-.08-.09-.08-.09-.08-.09-.08-.18-.17-.18-.17-.09-.09-.09-.09-.09-.09-.09-.09-.09-.1-.09-.1-.09-.1-.09-.1-.09-.1-.09-.11-.09-.11-.09-.11-.09-.11-.09-.12-.08-.12-.08-.12-.08-.13-.08-.13-.08-.13-.07-.14-.07-.14-.07-.14-.04-.08-.03-.07-.03-.07-.03-.08-.03-.08-.03-.08-.03-.08-.03-.08-.03-.08-.02-.08-.02-.08-.02-.08-.03-.12-.03-.13-.03-.13-.02-.13-.02-.13-.02-.13-.02-.12v-.12s-.02-.12-.02-.12v-.12s-.01-.12-.01-.12v-.12s0-.12,0-.12v-.12s.01-.12.01-.12v-.12s.02-.12.02-.12l.02-.12.02-.12.02-.12.02-.12.03-.11.03-.11.03-.11.03-.11.04-.11.04-.11.04-.11.04-.11.04-.11.05-.1.05-.1.05-.1.05-.1.05-.1.06-.1.06-.1.06-.09.06-.09.06-.09.07-.09.07-.09.07-.09.07-.09.07-.08.07-.08.07-.08.08-.08.08-.08.08-.08.08-.07.08-.07.08-.07.08-.07.08-.07.09-.07.09-.07.09-.06.09-.06.09-.06.09-.06.09-.06.09-.06.09-.05.09-.05.09-.05.09-.05.1-.05.1-.05.1-.05.1-.04.1-.04.1-.04.1-.04.1-.04.1-.04.1-.03.1-.03.1-.03.1-.03.1-.03.11-.03.1-.03.11-.02.11-.02.11-.02.11-.02.11-.02.11-.02h.11s.11-.03.11-.03h.11s.11-.02.11-.02h.11s.11-.01.11-.01h.11s.11,0,.11,0h.22Z"/>
  </g>
  <g>
    <path class="cls-11" d="M253.27,284.36s-12.34,3.8-14.03,20.09c-4.91,47.42-3.13,69.97-8.45,79.38-1.12,1.98-51.84-5.25-52.38-3.84-1.5,3.94-11.34,20.21-9.5,20.74,5.78,1.66,73.42,20.29,87.87,6.62,13.31-12.59,11.47-37.69,8.45-50.88-3.84-16.77,7.25-71.11-11.96-72.11Z"/>
    <path class="cls-15" d="M347.82,409.96c-12.87-42.74-50.95-135.52-50.95-135.52l-20.78-2.76c-2.61-2.01-28.77,18.48-28.77,18.48,0,0-2.22,12.44-4.33,24.83-1.94,11.34-12.97,23.11-11.93,29.15,2.41,13.99,19.63,17.36,19.63,17.36,3.05,24.62,5.42,39.34,8.74,51.96"/>
    <path class="cls-11" d="M294.48,274.65s-6.41,14.2-3.24,34.86c1.35,8.8,11.68,44.5,14.13,53.1,5.29,18.61-3.45,18.99-21.94,19.11-2.61.02-21.76-1.98-22.14-.36-1.08,4.55-4.96,26.05,2.15,27.62,8.69,1.92,53.99,7.51,67.1-9.4,12.07-15.56,7.37-43.16,2.82-57.41-5.78-18.11-19.28-68.75-38.87-67.53"/>
    <path class="cls-10" d="M261.63,380.61c2.63-.03,5.17,6.28,5.67,14.1.5,7.82-1.22,14.19-3.85,14.22-2.63.04-5.17-6.28-5.67-14.1-.5-7.82,1.22-14.19,3.85-14.22"/>
    <path class="cls-4" d="M266.44,392.61s-10.46-2.45-18.79-7.4c-2.55-1.52-2.18,1.57-1.94,1.91,1.25,1.79,6.83,5.69,6.3,5.94-1.1.51-13.48-2.76-17.62-4.41-.42-.17-4.84-2.11-5.11-1.47-.64,1.5,1.59,2.76,2.64,3.33,3.54,1.93,15.21,6.09,14.59,5.96-1.1-.24-10.65-1.85-14.26-2.62-.24-.05-5.34-1.15-5.52-.49-.36,1.34,3.43,2.64,4.33,2.89,3.53.97,13.1,3.75,14.3,4.11.5.15-3.71-.08-4.88-.15-3.63-.24-7.24-1.08-10.87-1.2-.71-.02-3.13-.32-3.32.86-.13.77,1.65,1.48,2.14,1.65,3.05,1.11,24.91,4.33,31.28,3.26,2.45-.41,6.4.9,6.4.9,0,0,4.76-9.17.34-13.06"/>
    <path class="cls-9" d="M237.86,182.14s-15.8-3-23.33,6.86-5.81,23.14-17.38,27.86-15.48,27.19-4.31,33.95-2.36,19.19-2.36,19.19c0,0-10.09,9.86,2.36,22.29,0,0,9.08,5.67,21.69,9.26,0,0-9.07-8.85-6.37-19.98,0,0,.97,18.53,18.12,19.98s28.34-10.55,28.34-10.55l50.12-12.2s29.19-7.6,29.22-27.84-19.62-17.81-23.37-32.39-4.67-28.89-20.92-33.52-35.97-21.77-51.82-2.91Z"/>
    <path class="cls-2" d="M275.89,272.63l-1.44-38.68c-3.89-8.26-26.63-8.7-34.23-4.65-7.03,3.75-10.67,12.67-8.56,21.02l18.79,48.09c2.74,9.76,14.72,7.08,19.29.89,11.75-15.93,6.79-25.64,6.16-26.67Z"/>
    <path class="cls-14" d="M220.9,253.06l-3.54-15.49s-6.86-3.17-8.88,4.29c-2.02,7.47,5.91,13.4,12.42,11.2"/>
    <path class="cls-14" d="M212.71,233.25c4.21,29.46,7.67,48.93,28.81,48.3,21.14-.63,48.05-24.94,47.75-50.57-.3-25.62-17.68-45.89-38.82-45.27-21.14.63-38.04,21.91-37.74,47.53"/>
    <path class="cls-11" d="M260.08,348.34s15.79,13.07,36.43,6.68c0,0-21.49,18.08-36.43-6.68Z"/>
    <ellipse class="cls-2" cx="258.25" cy="250.53" rx="10.45" ry="8.63" transform="translate(-83.86 139.1) rotate(-26.09)"/>
    <g class="cls-16">
      <ellipse class="cls-2" cx="217.9" cy="253.16" rx="8.63" ry="10.45" transform="translate(-110.3 315.29) rotate(-60)"/>
    </g>
    <path class="cls-9" d="M218.04,208.88s4.94-8.83,13.02,0,4.32,22.92,23.56,25.31,7.18,20.75,20.58,20l1.45,31.44s35.16-49.19,16.92-77.78c-18.25-28.59-62.78-37.38-75.53,1.03Z"/>
    <path class="cls-14" d="M269.97,255.26l6.55-15.84s8.89-3.37,10.32,4.19c1.42,7.56-9.17,13.76-16.87,11.65"/>
  </g>
  <g>
    <rect class="cls-13" x="165.19" y="400.75" width="98.72" height="9.65"/>
    <path class="cls-7" d="M211.52,408.5l-11.47-106.95-117.64,8.2,18.26,98.76h110.84Z"/>
    <path class="cls-5" d="M204.09,410.13l-10.91-108.48-117.14,8.4,17.71,100.17,110.34-.08Z"/>
    <path class="cls-7" d="M136.99,344.88c5.7-2.46,12.36,1.48,14.88,8.8s-.05,15.25-5.75,17.71c-5.7,2.46-12.36-1.48-14.88-8.8-2.52-7.32.05-15.25,5.75-17.71Z"/>
  </g>
  <g>
    <path class="cls-5" d="M383.16,298.01s-24.12-11.61-8.58-26.05c15.55-14.44-15.64-24.67-6.74-39.44,8.91-14.77,19.28-7.99,20.96-17.7,1.68-9.72-10.75-17.15-2.73-31.33,8.02-14.18,17.37-20.33,28.97-18.52,11.6,1.81-3.51,30.5,8.38,36.22,11.89,5.72,10.27,24.06-7.9,40.02-18.17,15.95,10.96,26.12-6.13,37.13-17.1,11-26.24,19.68-26.24,19.68Z"/>
    <path class="cls-5" d="M360.6,328.38s16.89-15.85,3.58-22.37c-13.32-6.52,9.06-23.36.71-32.05-8.35-8.69-15.42-.52-17.76-7.45-2.34-6.93.39-16.84-4.89-26.96-6.89-13.21-19.33-13.03-26.78-3.6-6.05,7.66,12.4,22.37,4.07,30.17-8.33,7.8-5.08,21.34,10.38,28.26,15.46,6.92-5.37,23.11,8.73,26.56,14.1,3.45,21.95,7.43,21.95,7.43Z"/>
    <path class="cls-12" d="M407.3,185.09l.31.1.28.17.24.22.19.26.13.3.06.32v.32s-.08.31-.08.31l-.19.56-.18.55-.18.55-.18.56-.18.56-.18.56-.18.56-.18.56-.18.56-.17.56-.17.56-.17.56-.17.56-.17.56-.17.56-.16.56-.16.56-.16.57-.16.57-.16.57-.16.57-.16.57-.15.57-.15.57-.15.57-.15.57-.15.57-.15.57-.15.57-.15.57-.15.57-.15.57-.14.57-.14.57-.14.57-.14.57-.14.57-.14.58-.14.58-.14.58-.14.58-.13.58-.13.58-.13.58-.13.58-.13.58-.13.58-.13.58-.13.58-.13.58-.25,1.16-.25,1.16-.25,1.16-.25,1.16-.24,1.16-.24,1.17-.24,1.17-.24,1.17-.24,1.17-.23,1.17-.23,1.17-.23,1.17-.23,1.17-.23,1.17-.23,1.17-.45,2.34-.45,2.34-.45,2.34-.45,2.34-.45,2.34-.23,1.17-.23,1.17-.23,1.17-.23,1.16-.23,1.17-.23,1.16-.23,1.16-.24,1.16-.24,1.16-.24,1.16-.24,1.16-.24,1.16-.25,1.15-.25,1.15-.69,3.18-.7,3.18-.7,3.18-.7,3.18-.7,3.18-.7,3.18-1.41,6.36-1.41,6.36-.7,3.18-.7,3.18-.7,3.18-.7,3.18-.7,3.18-.7,3.18-.69,3.18-.69,3.18-.34,1.59-.34,1.59-.34,1.59-.34,1.59-.34,1.59-.34,1.59-.34,1.59-.34,1.59-.34,1.59-.34,1.59-.33,1.59-.33,1.59-.33,1.59-.33,1.59-.33,1.59-.33,1.59-.33,1.59-.32,1.59-.32,1.59-.32,1.59-.32,1.59-.32,1.59-.32,1.59-.31,1.59-.31,1.6-.31,1.6-.31,1.59-.31,1.6-.09.31-.16.28-.21.24-.26.19-.29.14-.31.07h-.32s-.32-.05-.32-.05l-.3-.12-.26-.18-.22-.24-.17-.28-.11-.3-.04-.32.03-.32.31-1.6.31-1.6.31-1.6.31-1.6.31-1.6.32-1.6.32-1.6.32-1.6.32-1.6.32-1.6.33-1.6.33-1.6.33-1.6.33-1.6.33-1.6.33-1.6.33-1.6.33-1.6.34-1.6.34-1.6.34-1.59.34-1.6.34-1.59.34-1.59.34-1.59.34-1.59.34-1.59.34-1.59.69-3.19.7-3.19.7-3.19.7-3.18.7-3.18.7-3.18.7-3.18.7-3.18,1.41-6.36,1.41-6.36.7-3.18.7-3.18.7-3.18.7-3.18.7-3.18.69-3.18.25-1.15.24-1.15.24-1.15.24-1.15.24-1.15.24-1.15.23-1.16.23-1.16.23-1.16.23-1.16.23-1.16.23-1.16.23-1.16.23-1.16.45-2.33.45-2.34.45-2.34.45-2.34.45-2.34.23-1.17.23-1.17.23-1.17.23-1.17.23-1.17.23-1.17.24-1.17.24-1.17.24-1.17.24-1.17.24-1.17.25-1.17.25-1.17.25-1.17.26-1.17.13-.58.13-.58.13-.58.13-.58.13-.58.13-.58.13-.58.13-.58.14-.58.14-.58.14-.58.14-.58.14-.58.14-.58.14-.58.14-.58.15-.58.15-.58.15-.58.15-.58.15-.58.15-.58.15-.58.15-.58.15-.58.15-.58.16-.58.16-.57.16-.57.16-.57.16-.57.16-.57.16-.57.17-.57.17-.57.17-.57.17-.57.17-.57.17-.57.17-.57.18-.57.18-.57.18-.57.18-.57.18-.57.18-.57.19-.56.19-.56.19-.56.19-.56.13-.29.19-.26.24-.21.28-.16.31-.1.32-.03.32.04Z"/>
    <path class="cls-12" d="M330.09,243.96l.26.05.25.1.23.14.2.18.17.21.13.24.17.37.17.38.33.76.33.76.33.76.33.76.33.77.32.77.32.77.32.77.32.77.32.78.31.78.31.78.31.78.31.78.31.78.3.79.3.79.3.79.3.79.3.79.3.79.3.79.29.79.29.79.29.8.29.8.29.8.29.8.29.8.29.8.29.8.29.8.28.8.57,1.6.56,1.6.56,1.6.56,1.6.56,1.6,1.12,3.2.56,1.6.56,1.59.56,1.59.56,1.59.28.79.28.79.28.79.28.79.28.79.28.78.28.78.28.78.79,2.17.79,2.16.79,2.17.8,2.17,1.59,4.33,1.6,4.33,1.6,4.33,1.6,4.33,1.6,4.34.8,2.17.8,2.17.8,2.17.79,2.17.79,2.17.79,2.17.79,2.17.79,2.17.79,2.18.78,2.18.78,2.18.78,2.18.78,2.18.77,2.18.77,2.18.38,1.09.38,1.09.38,1.09.38,1.09.38,1.09.38,1.09.07.26.02.27-.03.27-.07.26-.12.24-.16.22-.19.19-.22.15-.25.11-.26.07-.27.02-.27-.03-.26-.07-.24-.12-.22-.16-.19-.19-.15-.22-.11-.25-.38-1.09-.38-1.09-.38-1.09-.38-1.09-.38-1.09-.38-1.09-.77-2.18-.77-2.18-.78-2.18-.78-2.18-.78-2.17-.78-2.17-.79-2.17-.79-2.17-.79-2.17-.79-2.17-.79-2.17-.79-2.17-.79-2.17-.8-2.17-.8-2.17-1.6-4.34-1.6-4.33-1.6-4.33-1.6-4.33-1.59-4.33-.8-2.17-.8-2.17-.79-2.17-.79-2.17-.29-.79-.29-.79-.28-.79-.28-.79-.28-.79-.28-.79-.28-.79-.28-.79-.56-1.59-.56-1.59-.56-1.6-.56-1.6-1.12-3.2-.56-1.6-.56-1.6-.56-1.6-.56-1.6-.57-1.6-.28-.8-.28-.8-.28-.8-.29-.8-.29-.8-.29-.79-.29-.79-.29-.79-.29-.79-.29-.79-.29-.79-.29-.79-.29-.79-.3-.78-.3-.78-.3-.78-.3-.78-.3-.78-.3-.78-.3-.77-.31-.77-.31-.77-.31-.77-.31-.77-.31-.76-.32-.76-.32-.76-.32-.76-.32-.76-.32-.75-.33-.75-.33-.75-.33-.75-.17-.37-.17-.37-.09-.25-.04-.27v-.27s.05-.26.05-.26l.1-.25.14-.23.18-.2.21-.17.23-.13.25-.09.27-.04h.27Z"/>
    <path class="cls-3" d="M391.84,350.52h-60.94v33.71c0,10.71,13.9,25.57,13.9,25.57l32.06.67s14.98-15.08,14.98-26.24v-33.71Z"/>
  </g>
</svg>